<mxfile host="Electron" agent="Mozilla/5.0 (Windows NT 10.0; Win64; x64) AppleWebKit/537.36 (KHTML, like Gecko) draw.io/28.2.5 Chrome/138.0.7204.251 Electron/37.6.1 Safari/537.36" version="28.2.5">
  <diagram name="第 1 页" id="XgIQo4NafmfbC__hgtfv">
    <mxGraphModel dx="2222" dy="1648" grid="0" gridSize="10" guides="1" tooltips="1" connect="1" arrows="1" fold="1" page="0" pageScale="1" pageWidth="1169" pageHeight="827" background="#FFFFFF" math="0" shadow="0">
      <root>
        <mxCell id="0" />
        <mxCell id="1" parent="0" />
        <mxCell id="4LYANcPHWq9vuV5rM0Qy-9" style="rounded=0;orthogonalLoop=1;jettySize=auto;html=1;exitX=0.25;exitY=1;exitDx=0;exitDy=0;entryX=1;entryY=0;entryDx=0;entryDy=0;endArrow=none;endFill=0;strokeColor=#333333;" parent="1" source="4LYANcPHWq9vuV5rM0Qy-1" target="4LYANcPHWq9vuV5rM0Qy-2" edge="1">
          <mxGeometry relative="1" as="geometry" />
        </mxCell>
        <mxCell id="4LYANcPHWq9vuV5rM0Qy-12" style="rounded=0;orthogonalLoop=1;jettySize=auto;html=1;exitX=0.5;exitY=1;exitDx=0;exitDy=0;entryX=0.5;entryY=0;entryDx=0;entryDy=0;endArrow=none;endFill=0;strokeColor=#333333;" parent="1" source="4LYANcPHWq9vuV5rM0Qy-1" target="4LYANcPHWq9vuV5rM0Qy-4" edge="1">
          <mxGeometry relative="1" as="geometry" />
        </mxCell>
        <mxCell id="4LYANcPHWq9vuV5rM0Qy-44" style="rounded=0;orthogonalLoop=1;jettySize=auto;html=1;exitX=0.5;exitY=0;exitDx=0;exitDy=0;entryX=0.5;entryY=1;entryDx=0;entryDy=0;strokeColor=#333333;endArrow=none;endFill=0;" parent="1" source="4LYANcPHWq9vuV5rM0Qy-1" target="4LYANcPHWq9vuV5rM0Qy-34" edge="1">
          <mxGeometry relative="1" as="geometry" />
        </mxCell>
        <mxCell id="G42axheilwnnns442K1A-32" style="rounded=0;orthogonalLoop=1;jettySize=auto;html=1;exitX=1;exitY=0.5;exitDx=0;exitDy=0;entryX=0;entryY=0.5;entryDx=0;entryDy=0;shape=link;strokeColor=#333333;" parent="1" source="4LYANcPHWq9vuV5rM0Qy-1" target="G42axheilwnnns442K1A-31" edge="1">
          <mxGeometry relative="1" as="geometry" />
        </mxCell>
        <mxCell id="4LYANcPHWq9vuV5rM0Qy-1" value="&lt;b&gt;原料&lt;/b&gt;" style="rounded=0;whiteSpace=wrap;html=1;fillColor=#fff2cc;strokeColor=#d6b656;fontStyle=1;fontSize=14;strokeWidth=2;fontColor=#333333;" parent="1" vertex="1">
          <mxGeometry x="858" y="755" width="120" height="60" as="geometry" />
        </mxCell>
        <mxCell id="4LYANcPHWq9vuV5rM0Qy-2" value="&lt;u&gt;原料ID&lt;/u&gt;" style="ellipse;whiteSpace=wrap;html=1;fillColor=#fff2cc;strokeColor=#d6b656;fontColor=#333333;" parent="1" vertex="1">
          <mxGeometry x="780" y="837" width="100" height="40" as="geometry" />
        </mxCell>
        <mxCell id="4LYANcPHWq9vuV5rM0Qy-4" value="分类" style="ellipse;whiteSpace=wrap;html=1;fillColor=#fff2cc;strokeColor=#d6b656;fontColor=#333333;" parent="1" vertex="1">
          <mxGeometry x="921" y="864" width="80" height="40" as="geometry" />
        </mxCell>
        <mxCell id="4LYANcPHWq9vuV5rM0Qy-26" style="rounded=0;orthogonalLoop=1;jettySize=auto;html=1;exitX=0.75;exitY=0;exitDx=0;exitDy=0;entryX=0;entryY=1;entryDx=0;entryDy=0;strokeColor=#333333;startArrow=none;startFill=0;endArrow=none;endFill=0;" parent="1" source="4LYANcPHWq9vuV5rM0Qy-14" target="4LYANcPHWq9vuV5rM0Qy-17" edge="1">
          <mxGeometry relative="1" as="geometry" />
        </mxCell>
        <mxCell id="4LYANcPHWq9vuV5rM0Qy-27" style="rounded=0;orthogonalLoop=1;jettySize=auto;html=1;exitX=1;exitY=0.25;exitDx=0;exitDy=0;entryX=0;entryY=0.5;entryDx=0;entryDy=0;strokeColor=#333333;startArrow=none;startFill=0;endArrow=none;endFill=0;" parent="1" source="4LYANcPHWq9vuV5rM0Qy-14" target="4LYANcPHWq9vuV5rM0Qy-23" edge="1">
          <mxGeometry relative="1" as="geometry" />
        </mxCell>
        <mxCell id="4LYANcPHWq9vuV5rM0Qy-30" style="rounded=0;orthogonalLoop=1;jettySize=auto;html=1;exitX=0.25;exitY=1;exitDx=0;exitDy=0;entryX=0.5;entryY=0;entryDx=0;entryDy=0;strokeColor=#333333;startArrow=none;startFill=0;endArrow=none;endFill=0;" parent="1" source="4LYANcPHWq9vuV5rM0Qy-14" target="4LYANcPHWq9vuV5rM0Qy-20" edge="1">
          <mxGeometry relative="1" as="geometry" />
        </mxCell>
        <mxCell id="4LYANcPHWq9vuV5rM0Qy-32" style="rounded=0;orthogonalLoop=1;jettySize=auto;html=1;exitX=0;exitY=0.5;exitDx=0;exitDy=0;entryX=1;entryY=0.5;entryDx=0;entryDy=0;strokeColor=#333333;startArrow=none;startFill=0;endArrow=none;endFill=0;" parent="1" source="4LYANcPHWq9vuV5rM0Qy-14" target="4LYANcPHWq9vuV5rM0Qy-18" edge="1">
          <mxGeometry relative="1" as="geometry" />
        </mxCell>
        <mxCell id="4LYANcPHWq9vuV5rM0Qy-43" style="rounded=0;orthogonalLoop=1;jettySize=auto;html=1;exitX=0.5;exitY=1;exitDx=0;exitDy=0;entryX=0.5;entryY=0;entryDx=0;entryDy=0;strokeColor=#333333;endArrow=none;endFill=0;shape=link;" parent="1" source="4LYANcPHWq9vuV5rM0Qy-14" target="4LYANcPHWq9vuV5rM0Qy-34" edge="1">
          <mxGeometry relative="1" as="geometry" />
        </mxCell>
        <mxCell id="4LYANcPHWq9vuV5rM0Qy-100" style="rounded=0;orthogonalLoop=1;jettySize=auto;html=1;exitX=1;exitY=0.5;exitDx=0;exitDy=0;strokeColor=#333333;entryX=0;entryY=0.5;entryDx=0;entryDy=0;endArrow=none;endFill=0;" parent="1" source="4LYANcPHWq9vuV5rM0Qy-14" target="Pq-Qp5VGkldlwj48xMcH-34" edge="1">
          <mxGeometry relative="1" as="geometry">
            <mxPoint x="1208" y="404" as="targetPoint" />
          </mxGeometry>
        </mxCell>
        <mxCell id="4LYANcPHWq9vuV5rM0Qy-14" value="&lt;b&gt;食谱&lt;/b&gt;" style="rounded=0;whiteSpace=wrap;html=1;fillColor=#d5e8d4;strokeColor=#82B366;fontStyle=1;fontSize=14;strokeWidth=2;fontColor=#333333;" parent="1" vertex="1">
          <mxGeometry x="945" y="374" width="120" height="60" as="geometry" />
        </mxCell>
        <mxCell id="4LYANcPHWq9vuV5rM0Qy-15" value="&lt;u&gt;食谱ID&lt;/u&gt;" style="ellipse;whiteSpace=wrap;html=1;fillColor=#d5e8d4;strokeColor=#82b366;fontColor=#333333;" parent="1" vertex="1">
          <mxGeometry x="838" y="269" width="90" height="40" as="geometry" />
        </mxCell>
        <mxCell id="4LYANcPHWq9vuV5rM0Qy-16" value="标题" style="ellipse;whiteSpace=wrap;html=1;fillColor=#d5e8d4;strokeColor=#82b366;fontColor=#333333;" parent="1" vertex="1">
          <mxGeometry x="936" y="291" width="80" height="40" as="geometry" />
        </mxCell>
        <mxCell id="4LYANcPHWq9vuV5rM0Qy-17" value="描述" style="ellipse;whiteSpace=wrap;html=1;fillColor=#d5e8d4;strokeColor=#82b366;fontColor=#333333;" parent="1" vertex="1">
          <mxGeometry x="1062" y="269" width="90" height="40" as="geometry" />
        </mxCell>
        <mxCell id="4LYANcPHWq9vuV5rM0Qy-18" value="说明" style="ellipse;whiteSpace=wrap;html=1;fillColor=#d5e8d4;strokeColor=#82b366;fontColor=#333333;" parent="1" vertex="1">
          <mxGeometry x="752.5" y="336" width="90" height="40" as="geometry" />
        </mxCell>
        <mxCell id="4LYANcPHWq9vuV5rM0Qy-19" value="准备时间" style="ellipse;whiteSpace=wrap;html=1;fillColor=#d5e8d4;strokeColor=#82b366;fontColor=#333333;" parent="1" vertex="1">
          <mxGeometry x="761" y="384" width="90" height="40" as="geometry" />
        </mxCell>
        <mxCell id="4LYANcPHWq9vuV5rM0Qy-20" value="烹饪时间" style="ellipse;whiteSpace=wrap;html=1;fillColor=#d5e8d4;strokeColor=#82b366;fontColor=#333333;" parent="1" vertex="1">
          <mxGeometry x="905" y="474" width="90" height="40" as="geometry" />
        </mxCell>
        <mxCell id="4LYANcPHWq9vuV5rM0Qy-21" value="份数" style="ellipse;whiteSpace=wrap;html=1;fillColor=#d5e8d4;strokeColor=#82b366;fontColor=#333333;" parent="1" vertex="1">
          <mxGeometry x="1025" y="474" width="80" height="40" as="geometry" />
        </mxCell>
        <mxCell id="4LYANcPHWq9vuV5rM0Qy-22" value="图片URL" style="ellipse;whiteSpace=wrap;html=1;fillColor=#d5e8d4;strokeColor=#82b366;dashed=1;fontColor=#333333;" parent="1" vertex="1">
          <mxGeometry x="1115" y="444" width="90" height="40" as="geometry" />
        </mxCell>
        <mxCell id="4LYANcPHWq9vuV5rM0Qy-23" value="难度" style="ellipse;whiteSpace=wrap;html=1;fillColor=#d5e8d4;strokeColor=#82b366;dashed=1;fontColor=#333333;" parent="1" vertex="1">
          <mxGeometry x="1125" y="322" width="80" height="40" as="geometry" />
        </mxCell>
        <mxCell id="4LYANcPHWq9vuV5rM0Qy-25" style="rounded=0;orthogonalLoop=1;jettySize=auto;html=1;exitX=0.389;exitY=0.004;exitDx=0;exitDy=0;entryX=0.369;entryY=1.025;entryDx=0;entryDy=0;entryPerimeter=0;strokeColor=#333333;startArrow=none;startFill=0;exitPerimeter=0;endArrow=none;endFill=0;" parent="1" source="4LYANcPHWq9vuV5rM0Qy-14" target="4LYANcPHWq9vuV5rM0Qy-16" edge="1">
          <mxGeometry relative="1" as="geometry" />
        </mxCell>
        <mxCell id="4LYANcPHWq9vuV5rM0Qy-28" style="rounded=0;orthogonalLoop=1;jettySize=auto;html=1;exitX=1;exitY=0.75;exitDx=0;exitDy=0;entryX=0.011;entryY=0.288;entryDx=0;entryDy=0;entryPerimeter=0;strokeColor=#333333;startArrow=none;startFill=0;endArrow=none;endFill=0;" parent="1" source="4LYANcPHWq9vuV5rM0Qy-14" target="4LYANcPHWq9vuV5rM0Qy-22" edge="1">
          <mxGeometry relative="1" as="geometry" />
        </mxCell>
        <mxCell id="4LYANcPHWq9vuV5rM0Qy-29" style="rounded=0;orthogonalLoop=1;jettySize=auto;html=1;exitX=0.75;exitY=1;exitDx=0;exitDy=0;entryX=0.338;entryY=0.075;entryDx=0;entryDy=0;entryPerimeter=0;strokeColor=#333333;startArrow=none;startFill=0;endArrow=none;endFill=0;" parent="1" source="4LYANcPHWq9vuV5rM0Qy-14" target="4LYANcPHWq9vuV5rM0Qy-21" edge="1">
          <mxGeometry relative="1" as="geometry" />
        </mxCell>
        <mxCell id="4LYANcPHWq9vuV5rM0Qy-31" style="rounded=0;orthogonalLoop=1;jettySize=auto;html=1;exitX=0;exitY=0.75;exitDx=0;exitDy=0;entryX=0.939;entryY=0.213;entryDx=0;entryDy=0;entryPerimeter=0;strokeColor=#333333;startArrow=none;startFill=0;endArrow=none;endFill=0;" parent="1" source="4LYANcPHWq9vuV5rM0Qy-14" target="4LYANcPHWq9vuV5rM0Qy-19" edge="1">
          <mxGeometry relative="1" as="geometry" />
        </mxCell>
        <mxCell id="4LYANcPHWq9vuV5rM0Qy-33" style="rounded=0;orthogonalLoop=1;jettySize=auto;html=1;exitX=0;exitY=0.25;exitDx=0;exitDy=0;entryX=0.933;entryY=0.838;entryDx=0;entryDy=0;entryPerimeter=0;strokeColor=#333333;startArrow=none;startFill=0;endArrow=none;endFill=0;" parent="1" source="4LYANcPHWq9vuV5rM0Qy-14" target="4LYANcPHWq9vuV5rM0Qy-15" edge="1">
          <mxGeometry relative="1" as="geometry" />
        </mxCell>
        <mxCell id="4LYANcPHWq9vuV5rM0Qy-40" style="rounded=0;orthogonalLoop=1;jettySize=auto;html=1;exitX=1;exitY=0;exitDx=0;exitDy=0;entryX=0;entryY=0.5;entryDx=0;entryDy=0;strokeColor=#333333;endArrow=none;endFill=0;" parent="1" source="4LYANcPHWq9vuV5rM0Qy-34" target="4LYANcPHWq9vuV5rM0Qy-36" edge="1">
          <mxGeometry relative="1" as="geometry" />
        </mxCell>
        <mxCell id="4LYANcPHWq9vuV5rM0Qy-41" style="rounded=0;orthogonalLoop=1;jettySize=auto;html=1;exitX=1;exitY=1;exitDx=0;exitDy=0;entryX=0;entryY=0.5;entryDx=0;entryDy=0;strokeColor=#333333;endArrow=none;endFill=0;" parent="1" source="4LYANcPHWq9vuV5rM0Qy-34" target="4LYANcPHWq9vuV5rM0Qy-37" edge="1">
          <mxGeometry relative="1" as="geometry" />
        </mxCell>
        <mxCell id="4LYANcPHWq9vuV5rM0Qy-42" style="rounded=0;orthogonalLoop=1;jettySize=auto;html=1;exitX=0;exitY=0;exitDx=0;exitDy=0;entryX=1;entryY=0.5;entryDx=0;entryDy=0;strokeColor=#333333;endArrow=none;endFill=0;" parent="1" source="4LYANcPHWq9vuV5rM0Qy-34" target="4LYANcPHWq9vuV5rM0Qy-35" edge="1">
          <mxGeometry relative="1" as="geometry" />
        </mxCell>
        <mxCell id="4LYANcPHWq9vuV5rM0Qy-34" value="&lt;b&gt;拥有原料&lt;/b&gt;" style="rhombus;whiteSpace=wrap;html=1;fillColor=#ffe6cc;strokeColor=#d79b00;fontStyle=1;fontSize=13;strokeWidth=2;fontColor=#333333;" parent="1" vertex="1">
          <mxGeometry x="936" y="611.75" width="179" height="105.25" as="geometry" />
        </mxCell>
        <mxCell id="4LYANcPHWq9vuV5rM0Qy-35" value="数量" style="ellipse;whiteSpace=wrap;html=1;fillColor=#ffe6cc;strokeColor=#d79b00;fontColor=#333333;" parent="1" vertex="1">
          <mxGeometry x="855" y="598" width="110" height="40" as="geometry" />
        </mxCell>
        <mxCell id="4LYANcPHWq9vuV5rM0Qy-36" value="是核心原料" style="ellipse;whiteSpace=wrap;html=1;fillColor=#ffe6cc;strokeColor=#d79b00;fontColor=#333333;" parent="1" vertex="1">
          <mxGeometry x="1127" y="575.75" width="120" height="40" as="geometry" />
        </mxCell>
        <mxCell id="4LYANcPHWq9vuV5rM0Qy-37" value="备注" style="ellipse;whiteSpace=wrap;html=1;fillColor=#ffe6cc;strokeColor=#d79b00;dashed=1;fontColor=#333333;" parent="1" vertex="1">
          <mxGeometry x="1141" y="671" width="70" height="40" as="geometry" />
        </mxCell>
        <mxCell id="4LYANcPHWq9vuV5rM0Qy-56" style="rounded=0;orthogonalLoop=1;jettySize=auto;html=1;exitX=0;exitY=0.75;exitDx=0;exitDy=0;entryX=0.961;entryY=0.33;entryDx=0;entryDy=0;strokeColor=#333333;endArrow=none;endFill=0;entryPerimeter=0;" parent="1" source="4LYANcPHWq9vuV5rM0Qy-46" target="4LYANcPHWq9vuV5rM0Qy-48" edge="1">
          <mxGeometry relative="1" as="geometry" />
        </mxCell>
        <mxCell id="4LYANcPHWq9vuV5rM0Qy-58" style="rounded=0;orthogonalLoop=1;jettySize=auto;html=1;exitX=0.25;exitY=0;exitDx=0;exitDy=0;entryX=0.5;entryY=1;entryDx=0;entryDy=0;strokeColor=#333333;endArrow=none;endFill=0;" parent="1" source="4LYANcPHWq9vuV5rM0Qy-46" target="4LYANcPHWq9vuV5rM0Qy-51" edge="1">
          <mxGeometry relative="1" as="geometry" />
        </mxCell>
        <mxCell id="4LYANcPHWq9vuV5rM0Qy-59" style="rounded=0;orthogonalLoop=1;jettySize=auto;html=1;exitX=0.5;exitY=1;exitDx=0;exitDy=0;entryX=0.5;entryY=0;entryDx=0;entryDy=0;strokeColor=#333333;endArrow=none;endFill=0;" parent="1" source="4LYANcPHWq9vuV5rM0Qy-46" target="4LYANcPHWq9vuV5rM0Qy-50" edge="1">
          <mxGeometry relative="1" as="geometry" />
        </mxCell>
        <mxCell id="4LYANcPHWq9vuV5rM0Qy-82" style="rounded=0;orthogonalLoop=1;jettySize=auto;html=1;exitX=1;exitY=1;exitDx=0;exitDy=0;entryX=0;entryY=0.5;entryDx=0;entryDy=0;strokeColor=#333333;endArrow=none;endFill=0;" parent="1" source="4LYANcPHWq9vuV5rM0Qy-46" target="4LYANcPHWq9vuV5rM0Qy-72" edge="1">
          <mxGeometry relative="1" as="geometry" />
        </mxCell>
        <mxCell id="4LYANcPHWq9vuV5rM0Qy-86" style="rounded=0;orthogonalLoop=1;jettySize=auto;html=1;exitX=1;exitY=0.5;exitDx=0;exitDy=0;entryX=0;entryY=0.5;entryDx=0;entryDy=0;strokeColor=#333333;endArrow=none;endFill=0;" parent="1" source="4LYANcPHWq9vuV5rM0Qy-46" target="4LYANcPHWq9vuV5rM0Qy-85" edge="1">
          <mxGeometry relative="1" as="geometry" />
        </mxCell>
        <mxCell id="Ztesn_iidaRLeLfR7DhW-21" style="rounded=0;orthogonalLoop=1;jettySize=auto;html=1;exitX=0.986;exitY=0.649;exitDx=0;exitDy=0;entryX=0;entryY=0.5;entryDx=0;entryDy=0;endArrow=none;endFill=0;strokeColor=#333333;exitPerimeter=0;" parent="1" source="4LYANcPHWq9vuV5rM0Qy-46" target="Ztesn_iidaRLeLfR7DhW-19" edge="1">
          <mxGeometry relative="1" as="geometry" />
        </mxCell>
        <mxCell id="Pq-Qp5VGkldlwj48xMcH-13" style="rounded=0;orthogonalLoop=1;jettySize=auto;html=1;exitX=0.5;exitY=0;exitDx=0;exitDy=0;endArrow=none;endFill=0;strokeColor=#333333;" parent="1" source="4LYANcPHWq9vuV5rM0Qy-46" target="Pq-Qp5VGkldlwj48xMcH-12" edge="1">
          <mxGeometry relative="1" as="geometry" />
        </mxCell>
        <mxCell id="ck9IUKkeBXYCFq2-rSwv-2" style="rounded=0;orthogonalLoop=1;jettySize=auto;html=1;exitX=1;exitY=0.25;exitDx=0;exitDy=0;strokeColor=#333333;endArrow=none;endFill=0;entryX=0;entryY=0.5;entryDx=0;entryDy=0;" edge="1" parent="1" source="4LYANcPHWq9vuV5rM0Qy-46" target="ck9IUKkeBXYCFq2-rSwv-1">
          <mxGeometry relative="1" as="geometry">
            <mxPoint x="592.8421052631579" y="264.31578947368416" as="targetPoint" />
          </mxGeometry>
        </mxCell>
        <mxCell id="ck9IUKkeBXYCFq2-rSwv-7" style="rounded=0;orthogonalLoop=1;jettySize=auto;html=1;exitX=0.75;exitY=1;exitDx=0;exitDy=0;entryX=0;entryY=0;entryDx=0;entryDy=0;shape=link;strokeColor=#333333;width=-5;" edge="1" parent="1" source="4LYANcPHWq9vuV5rM0Qy-46" target="ck9IUKkeBXYCFq2-rSwv-28">
          <mxGeometry relative="1" as="geometry">
            <mxPoint x="355.10000000000014" y="823.8799999999999" as="targetPoint" />
          </mxGeometry>
        </mxCell>
        <mxCell id="4LYANcPHWq9vuV5rM0Qy-46" value="&lt;b&gt;用户&lt;/b&gt;" style="rounded=0;whiteSpace=wrap;html=1;fillColor=#dae8fc;strokeColor=#6c8ebf;fontStyle=1;fontSize=14;strokeWidth=2;fontColor=#333333;" parent="1" vertex="1">
          <mxGeometry x="190" y="590.75" width="120" height="60" as="geometry" />
        </mxCell>
        <mxCell id="4LYANcPHWq9vuV5rM0Qy-47" value="&lt;u&gt;用户ID&lt;/u&gt;" style="ellipse;whiteSpace=wrap;html=1;fillColor=#dae8fc;strokeColor=#6c8ebf;fontColor=#333333;" parent="1" vertex="1">
          <mxGeometry x="110" y="707" width="80" height="40" as="geometry" />
        </mxCell>
        <mxCell id="4LYANcPHWq9vuV5rM0Qy-48" value="用户名" style="ellipse;whiteSpace=wrap;html=1;fillColor=#dae8fc;strokeColor=#6c8ebf;fontColor=#333333;" parent="1" vertex="1">
          <mxGeometry x="39" y="657" width="80" height="40" as="geometry" />
        </mxCell>
        <mxCell id="4LYANcPHWq9vuV5rM0Qy-49" value="邮箱" style="ellipse;whiteSpace=wrap;html=1;fillColor=#dae8fc;strokeColor=#6c8ebf;fontColor=#333333;" parent="1" vertex="1">
          <mxGeometry x="36" y="594.5" width="70" height="40" as="geometry" />
        </mxCell>
        <mxCell id="4LYANcPHWq9vuV5rM0Qy-50" value="密码" style="ellipse;whiteSpace=wrap;html=1;fillColor=#dae8fc;strokeColor=#6c8ebf;fontColor=#333333;" parent="1" vertex="1">
          <mxGeometry x="208" y="715" width="80" height="40" as="geometry" />
        </mxCell>
        <mxCell id="4LYANcPHWq9vuV5rM0Qy-51" value="创建时间" style="ellipse;whiteSpace=wrap;html=1;fillColor=#dae8fc;strokeColor=#6c8ebf;fontColor=#333333;" parent="1" vertex="1">
          <mxGeometry x="87" y="514.75" width="80" height="40" as="geometry" />
        </mxCell>
        <mxCell id="4LYANcPHWq9vuV5rM0Qy-55" style="rounded=0;orthogonalLoop=1;jettySize=auto;html=1;exitX=0.25;exitY=1;exitDx=0;exitDy=0;entryX=1;entryY=0;entryDx=0;entryDy=0;strokeColor=#333333;endArrow=none;endFill=0;" parent="1" source="4LYANcPHWq9vuV5rM0Qy-46" target="4LYANcPHWq9vuV5rM0Qy-47" edge="1">
          <mxGeometry relative="1" as="geometry" />
        </mxCell>
        <mxCell id="4LYANcPHWq9vuV5rM0Qy-57" style="rounded=0;orthogonalLoop=1;jettySize=auto;html=1;exitX=0.013;exitY=0.395;exitDx=0;exitDy=0;entryX=1;entryY=0.5;entryDx=0;entryDy=0;strokeColor=#333333;endArrow=none;endFill=0;exitPerimeter=0;" parent="1" source="4LYANcPHWq9vuV5rM0Qy-46" target="4LYANcPHWq9vuV5rM0Qy-49" edge="1">
          <mxGeometry relative="1" as="geometry" />
        </mxCell>
        <mxCell id="4LYANcPHWq9vuV5rM0Qy-76" style="rounded=0;orthogonalLoop=1;jettySize=auto;html=1;exitX=1;exitY=0.5;exitDx=0;exitDy=0;entryX=0;entryY=0;entryDx=0;entryDy=0;shape=link;strokeColor=#333333;" parent="1" source="4LYANcPHWq9vuV5rM0Qy-72" target="4LYANcPHWq9vuV5rM0Qy-1" edge="1">
          <mxGeometry relative="1" as="geometry" />
        </mxCell>
        <mxCell id="4LYANcPHWq9vuV5rM0Qy-81" style="rounded=0;orthogonalLoop=1;jettySize=auto;html=1;exitX=1;exitY=1;exitDx=0;exitDy=0;entryX=0.5;entryY=0;entryDx=0;entryDy=0;endArrow=none;endFill=0;strokeColor=#333333;" parent="1" source="4LYANcPHWq9vuV5rM0Qy-72" target="4LYANcPHWq9vuV5rM0Qy-79" edge="1">
          <mxGeometry relative="1" as="geometry" />
        </mxCell>
        <mxCell id="4LYANcPHWq9vuV5rM0Qy-72" value="&lt;b&gt;拥有&lt;/b&gt;" style="rhombus;whiteSpace=wrap;html=1;fillColor=#ffe6cc;strokeColor=#d79b00;fontStyle=1;fontSize=13;strokeWidth=2;fontColor=#333333;" parent="1" vertex="1">
          <mxGeometry x="567" y="719" width="100" height="80" as="geometry" />
        </mxCell>
        <mxCell id="4LYANcPHWq9vuV5rM0Qy-78" value="数量" style="ellipse;whiteSpace=wrap;html=1;fillColor=#ffe6cc;strokeColor=#d79b00;fontColor=#333333;" parent="1" vertex="1">
          <mxGeometry x="487" y="799" width="80" height="40" as="geometry" />
        </mxCell>
        <mxCell id="4LYANcPHWq9vuV5rM0Qy-79" value="添加时间" style="ellipse;whiteSpace=wrap;html=1;fillColor=#ffe6cc;strokeColor=#d79b00;fontColor=#333333;" parent="1" vertex="1">
          <mxGeometry x="661" y="807" width="80" height="40" as="geometry" />
        </mxCell>
        <mxCell id="4LYANcPHWq9vuV5rM0Qy-80" style="rounded=0;orthogonalLoop=1;jettySize=auto;html=1;exitX=0;exitY=1;exitDx=0;exitDy=0;entryX=0.681;entryY=0.096;entryDx=0;entryDy=0;entryPerimeter=0;endArrow=none;endFill=0;strokeColor=#333333;" parent="1" source="4LYANcPHWq9vuV5rM0Qy-72" target="4LYANcPHWq9vuV5rM0Qy-78" edge="1">
          <mxGeometry relative="1" as="geometry" />
        </mxCell>
        <mxCell id="4LYANcPHWq9vuV5rM0Qy-87" style="rounded=0;orthogonalLoop=1;jettySize=auto;html=1;exitX=1;exitY=0.5;exitDx=0;exitDy=0;entryX=0;entryY=1;entryDx=0;entryDy=0;strokeColor=#333333;endArrow=none;endFill=0;" parent="1" source="4LYANcPHWq9vuV5rM0Qy-85" target="4LYANcPHWq9vuV5rM0Qy-14" edge="1">
          <mxGeometry relative="1" as="geometry" />
        </mxCell>
        <mxCell id="4LYANcPHWq9vuV5rM0Qy-89" style="rounded=0;orthogonalLoop=1;jettySize=auto;html=1;exitX=0.5;exitY=0;exitDx=0;exitDy=0;entryX=0.5;entryY=1;entryDx=0;entryDy=0;endArrow=none;endFill=0;strokeColor=#333333;" parent="1" source="4LYANcPHWq9vuV5rM0Qy-85" target="4LYANcPHWq9vuV5rM0Qy-88" edge="1">
          <mxGeometry relative="1" as="geometry" />
        </mxCell>
        <mxCell id="4LYANcPHWq9vuV5rM0Qy-85" value="&lt;b&gt;喜爱&lt;/b&gt;" style="rhombus;whiteSpace=wrap;html=1;fillColor=#ffe6cc;strokeColor=#d79b00;fontStyle=1;fontSize=13;strokeWidth=2;fontColor=#333333;" parent="1" vertex="1">
          <mxGeometry x="600" y="406" width="100" height="80" as="geometry" />
        </mxCell>
        <mxCell id="4LYANcPHWq9vuV5rM0Qy-88" value="喜爱时间" style="ellipse;whiteSpace=wrap;html=1;fillColor=#ffe6cc;strokeColor=#d79b00;fontColor=#333333;" parent="1" vertex="1">
          <mxGeometry x="600" y="331" width="90" height="40" as="geometry" />
        </mxCell>
        <mxCell id="4LYANcPHWq9vuV5rM0Qy-97" style="rounded=0;orthogonalLoop=1;jettySize=auto;html=1;exitX=0.75;exitY=0;exitDx=0;exitDy=0;entryX=0.5;entryY=1;entryDx=0;entryDy=0;strokeColor=#333333;endArrow=none;endFill=0;" parent="1" source="Pq-Qp5VGkldlwj48xMcH-30" target="4LYANcPHWq9vuV5rM0Qy-91" edge="1">
          <mxGeometry relative="1" as="geometry">
            <mxPoint x="1579" y="378" as="sourcePoint" />
          </mxGeometry>
        </mxCell>
        <mxCell id="4LYANcPHWq9vuV5rM0Qy-98" style="rounded=0;orthogonalLoop=1;jettySize=auto;html=1;exitX=0.25;exitY=0;exitDx=0;exitDy=0;strokeColor=#333333;endArrow=none;endFill=0;entryX=0.5;entryY=1;entryDx=0;entryDy=0;" parent="1" source="Pq-Qp5VGkldlwj48xMcH-30" target="4LYANcPHWq9vuV5rM0Qy-92" edge="1">
          <mxGeometry relative="1" as="geometry">
            <mxPoint x="1519" y="378" as="sourcePoint" />
            <mxPoint x="1515" y="340" as="targetPoint" />
          </mxGeometry>
        </mxCell>
        <mxCell id="4LYANcPHWq9vuV5rM0Qy-91" value="&lt;u&gt;标签ID&lt;/u&gt;" style="ellipse;whiteSpace=wrap;html=1;fillColor=#f8cecc;strokeColor=#b85450;fontColor=#333333;" parent="1" vertex="1">
          <mxGeometry x="1574" y="301" width="70" height="40" as="geometry" />
        </mxCell>
        <mxCell id="4LYANcPHWq9vuV5rM0Qy-92" value="标签名字" style="ellipse;whiteSpace=wrap;html=1;fillColor=#f8cecc;strokeColor=#b85450;fontColor=#333333;" parent="1" vertex="1">
          <mxGeometry x="1451" y="304" width="80" height="40" as="geometry" />
        </mxCell>
        <mxCell id="4LYANcPHWq9vuV5rM0Qy-103" style="rounded=0;orthogonalLoop=1;jettySize=auto;html=1;exitX=1;exitY=0.5;exitDx=0;exitDy=0;entryX=0;entryY=0.5;entryDx=0;entryDy=0;shape=link;strokeColor=#333333;" parent="1" source="Pq-Qp5VGkldlwj48xMcH-34" target="Pq-Qp5VGkldlwj48xMcH-30" edge="1">
          <mxGeometry relative="1" as="geometry">
            <mxPoint x="1317" y="404" as="sourcePoint" />
            <mxPoint x="1489" y="406" as="targetPoint" />
          </mxGeometry>
        </mxCell>
        <mxCell id="4LYANcPHWq9vuV5rM0Qy-104" value="" style="rounded=1;whiteSpace=wrap;html=1;fillColor=#f5f5f5;strokeColor=#666666;fontColor=#333333;dashed=1;align=left;verticalAlign=top;" parent="1" vertex="1">
          <mxGeometry x="1794" y="32" width="550" height="250" as="geometry" />
        </mxCell>
        <mxCell id="4LYANcPHWq9vuV5rM0Qy-105" value="&lt;b&gt;&lt;font style=&quot;font-size: 16px;&quot;&gt;图例说明 (Legend)&lt;/font&gt;&lt;/b&gt;" style="text;html=1;align=center;verticalAlign=middle;resizable=0;points=[];autosize=1;fontColor=#333333;" parent="1" vertex="1">
          <mxGeometry x="1964" y="42" width="180" height="30" as="geometry" />
        </mxCell>
        <mxCell id="4LYANcPHWq9vuV5rM0Qy-106" value="• &lt;b&gt;矩形&lt;/b&gt; = 实体集 (Entity Set)" style="text;html=1;align=left;verticalAlign=middle;resizable=0;points=[];autosize=1;fontSize=12;fontColor=#333333;" parent="1" vertex="1">
          <mxGeometry x="1814" y="82" width="220" height="25" as="geometry" />
        </mxCell>
        <mxCell id="4LYANcPHWq9vuV5rM0Qy-107" value="• &lt;b&gt;菱形&lt;/b&gt; = 联系集 (Relationship Set)" style="text;html=1;align=left;verticalAlign=middle;resizable=0;points=[];autosize=1;fontSize=12;fontColor=#333333;" parent="1" vertex="1">
          <mxGeometry x="1814" y="112" width="260" height="25" as="geometry" />
        </mxCell>
        <mxCell id="4LYANcPHWq9vuV5rM0Qy-108" value="• &lt;b&gt;椭圆&lt;/b&gt; = 属性 (Attribute)" style="text;html=1;align=left;verticalAlign=middle;resizable=0;points=[];autosize=1;fontSize=12;fontColor=#333333;" parent="1" vertex="1">
          <mxGeometry x="1814" y="142" width="210" height="25" as="geometry" />
        </mxCell>
        <mxCell id="4LYANcPHWq9vuV5rM0Qy-109" value="• &lt;b&gt;&lt;u&gt;下划线&lt;/u&gt;&lt;/b&gt; = 主键 (Primary Key)" style="text;html=1;align=left;verticalAlign=middle;resizable=0;points=[];autosize=1;fontSize=12;fontColor=#333333;" parent="1" vertex="1">
          <mxGeometry x="1814" y="172" width="240" height="25" as="geometry" />
        </mxCell>
        <mxCell id="4LYANcPHWq9vuV5rM0Qy-110" value="• &lt;b&gt;虚线椭圆&lt;/b&gt; = 可选属性 (Nullable)" style="text;html=1;align=left;verticalAlign=middle;resizable=0;points=[];autosize=1;fontSize=12;fontColor=#333333;" parent="1" vertex="1">
          <mxGeometry x="1814" y="202" width="260" height="25" as="geometry" />
        </mxCell>
        <mxCell id="4LYANcPHWq9vuV5rM0Qy-111" value="• &lt;b&gt;双层椭圆&lt;/b&gt; = 多值属性 (Multivalued)" style="text;html=1;align=left;verticalAlign=middle;resizable=0;points=[];autosize=1;fontSize=12;fontColor=#333333;" parent="1" vertex="1">
          <mxGeometry x="1814" y="232" width="280" height="25" as="geometry" />
        </mxCell>
        <mxCell id="4LYANcPHWq9vuV5rM0Qy-112" value="• &lt;b&gt;1, n, m&lt;/b&gt; = 基数约束 (Cardinality)" style="text;html=1;align=left;verticalAlign=middle;resizable=0;points=[];autosize=1;fontSize=12;fontColor=#333333;" parent="1" vertex="1">
          <mxGeometry x="2074" y="82" width="250" height="25" as="geometry" />
        </mxCell>
        <mxCell id="4LYANcPHWq9vuV5rM0Qy-113" value="" style="rounded=1;whiteSpace=wrap;html=1;fillColor=#ffe6cc;strokeColor=#d79b00;align=left;verticalAlign=top;fontColor=#333333;" parent="1" vertex="1">
          <mxGeometry x="1791.5" y="339" width="555" height="235" as="geometry" />
        </mxCell>
        <mxCell id="4LYANcPHWq9vuV5rM0Qy-114" value="&lt;b&gt;&lt;font style=&quot;font-size: 16px;&quot;&gt;核心业务规则 (Key Business Rules)&lt;/font&gt;&lt;/b&gt;" style="text;html=1;align=center;verticalAlign=middle;resizable=0;points=[];autosize=1;fontColor=#333333;" parent="1" vertex="1">
          <mxGeometry x="1901.5" y="349" width="300" height="30" as="geometry" />
        </mxCell>
        <mxCell id="4LYANcPHWq9vuV5rM0Qy-115" value="1. &lt;b&gt;is_core_ingredient&lt;/b&gt; 标识核心食材，用于匹配算法" style="text;html=1;align=left;verticalAlign=middle;resizable=0;points=[];autosize=1;fontSize=11;fontColor=#333333;" parent="1" vertex="1">
          <mxGeometry x="1811.5" y="389" width="350" height="20" as="geometry" />
        </mxCell>
        <mxCell id="4LYANcPHWq9vuV5rM0Qy-116" value="2. &lt;b&gt;User_Pantry (Owns)&lt;/b&gt; 存储用户虚拟食品柜" style="text;html=1;align=left;verticalAlign=middle;resizable=0;points=[];autosize=1;fontSize=11;fontColor=#333333;" parent="1" vertex="1">
          <mxGeometry x="1811.5" y="414" width="340" height="20" as="geometry" />
        </mxCell>
        <mxCell id="4LYANcPHWq9vuV5rM0Qy-117" value="3. &lt;b&gt;Tags&lt;/b&gt; 支持按菜系、餐食类型、饮食偏好筛选" style="text;html=1;align=left;verticalAlign=middle;resizable=0;points=[];autosize=1;fontSize=11;fontColor=#333333;" parent="1" vertex="1">
          <mxGeometry x="1811.5" y="439" width="360" height="20" as="geometry" />
        </mxCell>
        <mxCell id="4LYANcPHWq9vuV5rM0Qy-118" value="4. &lt;b&gt;User_Preferences&lt;/b&gt; 存储饮食限制与过敏原信息" style="text;html=1;align=left;verticalAlign=middle;resizable=0;points=[];autosize=1;fontSize=11;fontColor=#333333;" parent="1" vertex="1">
          <mxGeometry x="1811.5" y="464" width="380" height="20" as="geometry" />
        </mxCell>
        <mxCell id="4LYANcPHWq9vuV5rM0Qy-119" value="5. &lt;b&gt;aliases (多值)&lt;/b&gt; 支持食材模糊搜索 (如: 土豆=马铃薯)" style="text;html=1;align=left;verticalAlign=middle;resizable=0;points=[];autosize=1;fontSize=11;fontColor=#333333;" parent="1" vertex="1">
          <mxGeometry x="1811.5" y="489" width="420" height="20" as="geometry" />
        </mxCell>
        <mxCell id="4LYANcPHWq9vuV5rM0Qy-120" value="6. &lt;b&gt;Recipe-Ingredient (n:m)&lt;/b&gt; 允许一个菜谱多种食材" style="text;html=1;align=left;verticalAlign=middle;resizable=0;points=[];autosize=1;fontSize=11;fontColor=#333333;" parent="1" vertex="1">
          <mxGeometry x="1811.5" y="514" width="400" height="20" as="geometry" />
        </mxCell>
        <mxCell id="4LYANcPHWq9vuV5rM0Qy-121" value="7. &lt;b&gt;User-Recipe Favorites (n:m)&lt;/b&gt; 多用户可收藏多个菜谱" style="text;html=1;align=left;verticalAlign=middle;resizable=0;points=[];autosize=1;fontSize=11;fontColor=#333333;" parent="1" vertex="1">
          <mxGeometry x="1811.5" y="539" width="420" height="20" as="geometry" />
        </mxCell>
        <mxCell id="4LYANcPHWq9vuV5rM0Qy-122" value="&lt;b&gt;参与约束:&lt;/b&gt;&amp;nbsp;双横线=全参与, 单横线=部分参与" style="text;html=1;align=center;verticalAlign=middle;resizable=0;points=[];autosize=1;fontSize=11;fontColor=#333333;fontStyle=2;" parent="1" vertex="1">
          <mxGeometry x="1936" y="620" width="231" height="25" as="geometry" />
        </mxCell>
        <mxCell id="Ztesn_iidaRLeLfR7DhW-6" style="rounded=0;orthogonalLoop=1;jettySize=auto;html=1;exitX=0.5;exitY=1;exitDx=0;exitDy=0;entryX=0.5;entryY=0;entryDx=0;entryDy=0;shape=link;strokeColor=#333333;" parent="1" source="fGZl--ZOmI5c5a0cFDRq-47" target="fGZl--ZOmI5c5a0cFDRq-44" edge="1">
          <mxGeometry relative="1" as="geometry">
            <mxPoint x="1062" y="87.99999999999989" as="sourcePoint" />
            <mxPoint x="1057" y="155" as="targetPoint" />
          </mxGeometry>
        </mxCell>
        <mxCell id="Ztesn_iidaRLeLfR7DhW-15" style="rounded=0;orthogonalLoop=1;jettySize=auto;html=1;exitX=0;exitY=0.75;exitDx=0;exitDy=0;entryX=1;entryY=0;entryDx=0;entryDy=0;strokeColor=#333333;endArrow=none;endFill=0;" parent="1" source="fGZl--ZOmI5c5a0cFDRq-47" target="Ztesn_iidaRLeLfR7DhW-4" edge="1">
          <mxGeometry relative="1" as="geometry">
            <mxPoint x="1002" y="72.99999999999989" as="sourcePoint" />
          </mxGeometry>
        </mxCell>
        <mxCell id="Ztesn_iidaRLeLfR7DhW-16" style="rounded=0;orthogonalLoop=1;jettySize=auto;html=1;exitX=1;exitY=0.75;exitDx=0;exitDy=0;entryX=0;entryY=0;entryDx=0;entryDy=0;strokeColor=#333333;endArrow=none;endFill=0;" parent="1" source="fGZl--ZOmI5c5a0cFDRq-47" target="Ztesn_iidaRLeLfR7DhW-9" edge="1">
          <mxGeometry relative="1" as="geometry">
            <mxPoint x="1122" y="72.99999999999989" as="sourcePoint" />
          </mxGeometry>
        </mxCell>
        <mxCell id="Ztesn_iidaRLeLfR7DhW-4" value="&lt;font color=&quot;#333333&quot;&gt;步骤数&lt;/font&gt;" style="ellipse;whiteSpace=wrap;html=1;fillColor=light-dark(#d5e8d4, #ffcce6);strokeColor=light-dark(#82b366, #ff3399);fontColor=#333333;" parent="1" vertex="1">
          <mxGeometry x="888" y="109" width="90" height="36" as="geometry" />
        </mxCell>
        <mxCell id="Ztesn_iidaRLeLfR7DhW-7" style="rounded=0;orthogonalLoop=1;jettySize=auto;html=1;exitX=0.5;exitY=1;exitDx=0;exitDy=0;entryX=0.5;entryY=0;entryDx=0;entryDy=0;strokeColor=#333333;endArrow=none;endFill=0;shape=link;" parent="1" source="fGZl--ZOmI5c5a0cFDRq-44" target="4LYANcPHWq9vuV5rM0Qy-14" edge="1">
          <mxGeometry relative="1" as="geometry">
            <mxPoint x="1057" y="235" as="sourcePoint" />
          </mxGeometry>
        </mxCell>
        <mxCell id="Ztesn_iidaRLeLfR7DhW-9" value="&lt;font color=&quot;#333333&quot;&gt;内容&lt;/font&gt;" style="ellipse;whiteSpace=wrap;html=1;fillColor=light-dark(#d5e8d4, #ffcce6);strokeColor=light-dark(#82b366, #ff3399);fontColor=#333333;" parent="1" vertex="1">
          <mxGeometry x="1149" y="90" width="90" height="36" as="geometry" />
        </mxCell>
        <mxCell id="Ztesn_iidaRLeLfR7DhW-23" style="rounded=0;orthogonalLoop=1;jettySize=auto;html=1;exitX=1;exitY=0;exitDx=0;exitDy=0;entryX=0;entryY=1;entryDx=0;entryDy=0;endArrow=none;endFill=0;strokeColor=#333333;shape=link;" parent="1" source="Ztesn_iidaRLeLfR7DhW-17" target="Ztesn_iidaRLeLfR7DhW-20" edge="1">
          <mxGeometry relative="1" as="geometry" />
        </mxCell>
        <mxCell id="fGZl--ZOmI5c5a0cFDRq-28" style="rounded=0;orthogonalLoop=1;jettySize=auto;html=1;exitX=0.75;exitY=1;exitDx=0;exitDy=0;entryX=0;entryY=0;entryDx=0;entryDy=0;endArrow=none;endFill=0;strokeColor=#333333;" parent="1" source="Ztesn_iidaRLeLfR7DhW-17" target="fGZl--ZOmI5c5a0cFDRq-24" edge="1">
          <mxGeometry relative="1" as="geometry" />
        </mxCell>
        <mxCell id="fGZl--ZOmI5c5a0cFDRq-53" style="rounded=0;orthogonalLoop=1;jettySize=auto;html=1;exitX=1;exitY=0.5;exitDx=0;exitDy=0;entryX=0;entryY=0.5;entryDx=0;entryDy=0;strokeColor=#333333;endArrow=none;endFill=0;" parent="1" source="Ztesn_iidaRLeLfR7DhW-17" target="fGZl--ZOmI5c5a0cFDRq-52" edge="1">
          <mxGeometry relative="1" as="geometry" />
        </mxCell>
        <mxCell id="Ztesn_iidaRLeLfR7DhW-17" value="&lt;b&gt;&lt;font style=&quot;color: rgb(51, 51, 51);&quot;&gt;评论&lt;/font&gt;&lt;/b&gt;" style="rounded=0;whiteSpace=wrap;html=1;fillColor=#00FF80;strokeColor=#006633;fontStyle=1;fontSize=14;strokeWidth=2;fontColor=#333333;" parent="1" vertex="1">
          <mxGeometry x="604" y="570.5" width="120" height="64" as="geometry" />
        </mxCell>
        <mxCell id="Ztesn_iidaRLeLfR7DhW-22" style="rounded=0;orthogonalLoop=1;jettySize=auto;html=1;exitX=1;exitY=0.5;exitDx=0;exitDy=0;entryX=0;entryY=0.5;entryDx=0;entryDy=0;shape=link;strokeColor=#333333;" parent="1" source="Ztesn_iidaRLeLfR7DhW-19" target="Ztesn_iidaRLeLfR7DhW-17" edge="1">
          <mxGeometry relative="1" as="geometry" />
        </mxCell>
        <mxCell id="Ztesn_iidaRLeLfR7DhW-19" value="&lt;b&gt;&lt;font style=&quot;color: rgb(51, 51, 51);&quot;&gt;发布&lt;/font&gt;&lt;/b&gt;" style="rhombus;whiteSpace=wrap;html=1;fillColor=#ffe6cc;strokeColor=#d79b00;fontStyle=1;fontSize=13;strokeWidth=2;fontColor=#333333;" parent="1" vertex="1">
          <mxGeometry x="418" y="584.75" width="100" height="80" as="geometry" />
        </mxCell>
        <mxCell id="Ztesn_iidaRLeLfR7DhW-20" value="&lt;font color=&quot;#333333&quot;&gt;拥有评论&lt;/font&gt;" style="rhombus;whiteSpace=wrap;html=1;fillColor=#ffe6cc;strokeColor=#d79b00;fontStyle=1;fontSize=13;strokeWidth=2;fontColor=#333333;" parent="1" vertex="1">
          <mxGeometry x="763" y="472" width="100" height="80" as="geometry" />
        </mxCell>
        <mxCell id="Ztesn_iidaRLeLfR7DhW-24" style="rounded=0;orthogonalLoop=1;jettySize=auto;html=1;exitX=1;exitY=0;exitDx=0;exitDy=0;entryX=0.113;entryY=1.028;entryDx=0;entryDy=0;entryPerimeter=0;endArrow=none;endFill=0;strokeColor=#333333;" parent="1" source="Ztesn_iidaRLeLfR7DhW-20" target="4LYANcPHWq9vuV5rM0Qy-14" edge="1">
          <mxGeometry relative="1" as="geometry" />
        </mxCell>
        <mxCell id="fGZl--ZOmI5c5a0cFDRq-15" value="&lt;font style=&quot;color: rgb(51, 51, 51);&quot;&gt;1&lt;/font&gt;" style="text;html=1;align=center;verticalAlign=middle;resizable=0;points=[];autosize=1;strokeColor=none;fillColor=none;" parent="1" vertex="1">
          <mxGeometry x="359" y="601.5" width="25" height="26" as="geometry" />
        </mxCell>
        <mxCell id="fGZl--ZOmI5c5a0cFDRq-16" value="&lt;font style=&quot;color: rgb(51, 51, 51);&quot;&gt;M&lt;/font&gt;" style="text;html=1;align=center;verticalAlign=middle;resizable=0;points=[];autosize=1;strokeColor=none;fillColor=none;" parent="1" vertex="1">
          <mxGeometry x="553" y="589.75" width="28" height="26" as="geometry" />
        </mxCell>
        <mxCell id="fGZl--ZOmI5c5a0cFDRq-19" value="&lt;font style=&quot;color: rgb(51, 51, 51);&quot;&gt;M&lt;/font&gt;" style="text;html=1;align=center;verticalAlign=middle;resizable=0;points=[];autosize=1;strokeColor=none;fillColor=none;" parent="1" vertex="1">
          <mxGeometry x="444" y="689" width="28" height="26" as="geometry" />
        </mxCell>
        <mxCell id="fGZl--ZOmI5c5a0cFDRq-20" value="&lt;font style=&quot;color: rgb(51, 51, 51);&quot;&gt;N&lt;/font&gt;" style="text;html=1;align=center;verticalAlign=middle;resizable=0;points=[];autosize=1;strokeColor=none;fillColor=none;" parent="1" vertex="1">
          <mxGeometry x="753" y="733" width="27" height="26" as="geometry" />
        </mxCell>
        <mxCell id="fGZl--ZOmI5c5a0cFDRq-21" value="&lt;font style=&quot;color: rgb(51, 51, 51);&quot;&gt;&lt;u style=&quot;font-weight: normal;&quot;&gt;评论ID&lt;/u&gt;&lt;/font&gt;" style="ellipse;whiteSpace=wrap;html=1;fillColor=#00FF80;strokeColor=#006633;fontColor=#333333;rounded=0;strokeWidth=1;align=center;verticalAlign=middle;fontFamily=Helvetica;fontSize=14;fontStyle=1;" parent="1" vertex="1">
          <mxGeometry x="546" y="514.75" width="80" height="40" as="geometry" />
        </mxCell>
        <mxCell id="fGZl--ZOmI5c5a0cFDRq-22" style="rounded=0;orthogonalLoop=1;jettySize=auto;html=1;exitX=0.25;exitY=0;exitDx=0;exitDy=0;entryX=0.7;entryY=0.992;entryDx=0;entryDy=0;entryPerimeter=0;endArrow=none;endFill=0;strokeColor=#333333;" parent="1" source="Ztesn_iidaRLeLfR7DhW-17" target="fGZl--ZOmI5c5a0cFDRq-21" edge="1">
          <mxGeometry relative="1" as="geometry" />
        </mxCell>
        <mxCell id="fGZl--ZOmI5c5a0cFDRq-27" style="rounded=0;orthogonalLoop=1;jettySize=auto;html=1;exitX=0.5;exitY=0;exitDx=0;exitDy=0;entryX=0.25;entryY=1;entryDx=0;entryDy=0;endArrow=none;endFill=0;strokeColor=#333333;" parent="1" source="fGZl--ZOmI5c5a0cFDRq-23" target="Ztesn_iidaRLeLfR7DhW-17" edge="1">
          <mxGeometry relative="1" as="geometry" />
        </mxCell>
        <mxCell id="fGZl--ZOmI5c5a0cFDRq-23" value="&lt;font style=&quot;color: rgb(51, 51, 51); font-weight: normal;&quot;&gt;评分&lt;/font&gt;" style="ellipse;whiteSpace=wrap;html=1;fillColor=#00FF80;strokeColor=#006633;fontColor=#333333;rounded=0;strokeWidth=1;align=center;verticalAlign=middle;fontFamily=Helvetica;fontSize=14;fontStyle=1;" parent="1" vertex="1">
          <mxGeometry x="562" y="658" width="80" height="40" as="geometry" />
        </mxCell>
        <mxCell id="fGZl--ZOmI5c5a0cFDRq-24" value="&lt;font style=&quot;color: rgb(51, 51, 51); font-weight: normal;&quot;&gt;评论&lt;/font&gt;" style="ellipse;whiteSpace=wrap;html=1;fillColor=#00FF80;strokeColor=#006633;fontColor=#333333;rounded=0;strokeWidth=1;align=center;verticalAlign=middle;fontFamily=Helvetica;fontSize=14;fontStyle=1;" parent="1" vertex="1">
          <mxGeometry x="690" y="658" width="80" height="40" as="geometry" />
        </mxCell>
        <mxCell id="Pq-Qp5VGkldlwj48xMcH-37" style="rounded=0;orthogonalLoop=1;jettySize=auto;html=1;exitX=0.5;exitY=1;exitDx=0;exitDy=0;entryX=0.75;entryY=0;entryDx=0;entryDy=0;endArrow=none;endFill=0;strokeColor=#333333;" parent="1" source="fGZl--ZOmI5c5a0cFDRq-25" target="Ztesn_iidaRLeLfR7DhW-17" edge="1">
          <mxGeometry relative="1" as="geometry" />
        </mxCell>
        <mxCell id="fGZl--ZOmI5c5a0cFDRq-25" value="&lt;font style=&quot;color: rgb(51, 51, 51); font-weight: normal;&quot;&gt;创建时间&lt;/font&gt;" style="ellipse;whiteSpace=wrap;html=1;fillColor=#00FF80;strokeColor=#006633;fontColor=#333333;rounded=0;strokeWidth=1;align=center;verticalAlign=middle;fontFamily=Helvetica;fontSize=14;fontStyle=1;" parent="1" vertex="1">
          <mxGeometry x="655" y="507" width="80" height="40" as="geometry" />
        </mxCell>
        <mxCell id="fGZl--ZOmI5c5a0cFDRq-29" value="&lt;font style=&quot;color: rgb(51, 51, 51);&quot;&gt;N&lt;/font&gt;" style="text;html=1;align=center;verticalAlign=middle;resizable=0;points=[];autosize=1;strokeColor=none;fillColor=none;" parent="1" vertex="1">
          <mxGeometry x="753" y="552" width="27" height="26" as="geometry" />
        </mxCell>
        <mxCell id="fGZl--ZOmI5c5a0cFDRq-30" value="&lt;font style=&quot;color: rgb(51, 51, 51);&quot;&gt;1&lt;/font&gt;" style="text;html=1;align=center;verticalAlign=middle;resizable=0;points=[];autosize=1;strokeColor=none;fillColor=none;" parent="1" vertex="1">
          <mxGeometry x="870.5" y="447" width="25" height="26" as="geometry" />
        </mxCell>
        <mxCell id="fGZl--ZOmI5c5a0cFDRq-32" value="&lt;font style=&quot;color: rgb(51, 51, 51);&quot;&gt;M&lt;/font&gt;" style="text;html=1;align=center;verticalAlign=middle;resizable=0;points=[];autosize=1;strokeColor=none;fillColor=none;" parent="1" vertex="1">
          <mxGeometry x="449" y="498" width="28" height="26" as="geometry" />
        </mxCell>
        <mxCell id="fGZl--ZOmI5c5a0cFDRq-33" value="&lt;font style=&quot;color: rgb(51, 51, 51);&quot;&gt;N&lt;/font&gt;" style="text;html=1;align=center;verticalAlign=middle;resizable=0;points=[];autosize=1;strokeColor=none;fillColor=none;" parent="1" vertex="1">
          <mxGeometry x="803" y="440" width="27" height="26" as="geometry" />
        </mxCell>
        <mxCell id="fGZl--ZOmI5c5a0cFDRq-37" value="&lt;font style=&quot;color: rgb(51, 51, 51);&quot;&gt;M&lt;/font&gt;" style="text;html=1;align=center;verticalAlign=middle;resizable=0;points=[];autosize=1;strokeColor=none;fillColor=none;" parent="1" vertex="1">
          <mxGeometry x="948" y="717" width="28" height="26" as="geometry" />
        </mxCell>
        <mxCell id="fGZl--ZOmI5c5a0cFDRq-38" value="&lt;font style=&quot;color: rgb(51, 51, 51);&quot;&gt;N&lt;/font&gt;" style="text;html=1;align=center;verticalAlign=middle;resizable=0;points=[];autosize=1;strokeColor=none;fillColor=none;" parent="1" vertex="1">
          <mxGeometry x="1013" y="519" width="27" height="26" as="geometry" />
        </mxCell>
        <mxCell id="fGZl--ZOmI5c5a0cFDRq-39" value="&lt;font style=&quot;color: rgb(51, 51, 51);&quot;&gt;1&lt;/font&gt;" style="text;html=1;align=center;verticalAlign=middle;resizable=0;points=[];autosize=1;strokeColor=none;fillColor=none;" parent="1" vertex="1">
          <mxGeometry x="1025" y="306" width="25" height="26" as="geometry" />
        </mxCell>
        <mxCell id="fGZl--ZOmI5c5a0cFDRq-40" value="&lt;font style=&quot;color: rgb(51, 51, 51);&quot;&gt;N&lt;/font&gt;" style="text;html=1;align=center;verticalAlign=middle;resizable=0;points=[];autosize=1;strokeColor=none;fillColor=none;" parent="1" vertex="1">
          <mxGeometry x="1060" y="105" width="27" height="26" as="geometry" />
        </mxCell>
        <mxCell id="fGZl--ZOmI5c5a0cFDRq-41" value="&lt;font style=&quot;color: rgb(51, 51, 51);&quot;&gt;M&lt;/font&gt;" style="text;html=1;align=center;verticalAlign=middle;resizable=0;points=[];autosize=1;strokeColor=none;fillColor=none;" parent="1" vertex="1">
          <mxGeometry x="1129" y="380" width="28" height="26" as="geometry" />
        </mxCell>
        <mxCell id="fGZl--ZOmI5c5a0cFDRq-42" value="&lt;font style=&quot;color: rgb(51, 51, 51);&quot;&gt;N&lt;/font&gt;" style="text;html=1;align=center;verticalAlign=middle;resizable=0;points=[];autosize=1;strokeColor=none;fillColor=none;" parent="1" vertex="1">
          <mxGeometry x="1396" y="377" width="27" height="26" as="geometry" />
        </mxCell>
        <mxCell id="Pq-Qp5VGkldlwj48xMcH-9" style="rounded=0;orthogonalLoop=1;jettySize=auto;html=1;exitX=1;exitY=0.5;exitDx=0;exitDy=0;entryX=0;entryY=0.5;entryDx=0;entryDy=0;endArrow=none;endFill=0;strokeColor=#333333;" parent="1" source="Pq-Qp5VGkldlwj48xMcH-30" target="Pq-Qp5VGkldlwj48xMcH-8" edge="1">
          <mxGeometry relative="1" as="geometry">
            <mxPoint x="1609" y="406" as="sourcePoint" />
          </mxGeometry>
        </mxCell>
        <mxCell id="fGZl--ZOmI5c5a0cFDRq-44" value="拥有步骤" style="shape=rhombus;double=1;perimeter=rhombusPerimeter;whiteSpace=wrap;html=1;align=center;strokeColor=#d79b00;strokeWidth=2;verticalAlign=middle;fontFamily=Helvetica;fontSize=13;fontColor=#333333;fontStyle=1;fillColor=#ffe6cc;" parent="1" vertex="1">
          <mxGeometry x="991" y="148" width="120" height="96" as="geometry" />
        </mxCell>
        <mxCell id="ck9IUKkeBXYCFq2-rSwv-31" style="rounded=0;orthogonalLoop=1;jettySize=auto;html=1;exitX=0.25;exitY=0;exitDx=0;exitDy=0;entryX=1;entryY=1;entryDx=0;entryDy=0;strokeColor=#333333;endArrow=none;endFill=0;" edge="1" parent="1" source="fGZl--ZOmI5c5a0cFDRq-47" target="ck9IUKkeBXYCFq2-rSwv-30">
          <mxGeometry relative="1" as="geometry" />
        </mxCell>
        <mxCell id="fGZl--ZOmI5c5a0cFDRq-47" value="&lt;font color=&quot;#333333&quot;&gt;步骤&lt;/font&gt;" style="shape=ext;margin=3;double=1;whiteSpace=wrap;html=1;align=center;rounded=0;strokeColor=#FF3399;strokeWidth=2;verticalAlign=middle;fontFamily=Helvetica;fontSize=14;fontColor=#333333;fontStyle=1;fillColor=#FFCCE6;" parent="1" vertex="1">
          <mxGeometry x="1001" y="19" width="127" height="68" as="geometry" />
        </mxCell>
        <mxCell id="fGZl--ZOmI5c5a0cFDRq-52" value="&lt;font style=&quot;color: rgb(51, 51, 51); font-weight: normal;&quot;&gt;点赞数量&lt;/font&gt;" style="ellipse;whiteSpace=wrap;html=1;fillColor=#00FF80;strokeColor=#006633;fontColor=#333333;rounded=0;strokeWidth=1;align=center;verticalAlign=middle;fontFamily=Helvetica;fontSize=14;fontStyle=1;" parent="1" vertex="1">
          <mxGeometry x="741" y="584.75" width="94" height="40.25" as="geometry" />
        </mxCell>
        <mxCell id="G42axheilwnnns442K1A-2" style="rounded=0;orthogonalLoop=1;jettySize=auto;html=1;exitX=0.5;exitY=1;exitDx=0;exitDy=0;entryX=0.75;entryY=0;entryDx=0;entryDy=0;strokeColor=#333333;endArrow=none;endFill=0;" parent="1" source="Pq-Qp5VGkldlwj48xMcH-10" target="4LYANcPHWq9vuV5rM0Qy-46" edge="1">
          <mxGeometry relative="1" as="geometry">
            <mxPoint x="327.5" y="612" as="targetPoint" />
            <mxPoint x="346.5" y="532" as="sourcePoint" />
          </mxGeometry>
        </mxCell>
        <mxCell id="G42axheilwnnns442K1A-3" style="rounded=0;orthogonalLoop=1;jettySize=auto;html=1;exitX=0.25;exitY=0;exitDx=0;exitDy=0;entryX=0.5;entryY=1;entryDx=0;entryDy=0;strokeColor=#333333;endArrow=none;endFill=0;" parent="1" source="Pq-Qp5VGkldlwj48xMcH-7" target="G42axheilwnnns442K1A-5" edge="1">
          <mxGeometry relative="1" as="geometry">
            <mxPoint x="279" y="332" as="sourcePoint" />
          </mxGeometry>
        </mxCell>
        <mxCell id="G42axheilwnnns442K1A-5" value="&lt;u&gt;偏好ID&lt;/u&gt;" style="ellipse;whiteSpace=wrap;html=1;fillColor=#e1d5e7;strokeColor=#9673a6;fontColor=#333333;" parent="1" vertex="1">
          <mxGeometry x="251" y="242" width="100" height="40" as="geometry" />
        </mxCell>
        <mxCell id="G42axheilwnnns442K1A-7" style="rounded=0;orthogonalLoop=1;jettySize=auto;html=1;entryX=0.5;entryY=1;entryDx=0;entryDy=0;strokeColor=#333333;endArrow=none;endFill=0;exitX=0.5;exitY=0;exitDx=0;exitDy=0;" parent="1" source="Pq-Qp5VGkldlwj48xMcH-10" target="Pq-Qp5VGkldlwj48xMcH-7" edge="1">
          <mxGeometry relative="1" as="geometry">
            <mxPoint x="346.5" y="426" as="sourcePoint" />
            <mxPoint x="314" y="390" as="targetPoint" />
          </mxGeometry>
        </mxCell>
        <mxCell id="Pq-Qp5VGkldlwj48xMcH-6" style="rounded=0;orthogonalLoop=1;jettySize=auto;html=1;exitX=0.75;exitY=0;exitDx=0;exitDy=0;entryX=0.5;entryY=1;entryDx=0;entryDy=0;endArrow=none;endFill=0;strokeColor=#333333;" parent="1" source="Pq-Qp5VGkldlwj48xMcH-7" target="Pq-Qp5VGkldlwj48xMcH-5" edge="1">
          <mxGeometry relative="1" as="geometry">
            <mxPoint x="349" y="332" as="sourcePoint" />
          </mxGeometry>
        </mxCell>
        <mxCell id="G42axheilwnnns442K1A-10" value="&lt;font style=&quot;color: rgb(51, 51, 51);&quot;&gt;M&lt;/font&gt;" style="text;html=1;align=center;verticalAlign=middle;resizable=0;points=[];autosize=1;strokeColor=none;fillColor=none;" parent="1" vertex="1">
          <mxGeometry x="304.5" y="549.75" width="28" height="26" as="geometry" />
        </mxCell>
        <mxCell id="G42axheilwnnns442K1A-11" value="&lt;font style=&quot;color: rgb(51, 51, 51);&quot;&gt;N&lt;/font&gt;" style="text;html=1;align=center;verticalAlign=middle;resizable=0;points=[];autosize=1;strokeColor=none;fillColor=none;" parent="1" vertex="1">
          <mxGeometry x="324" y="393" width="27" height="26" as="geometry" />
        </mxCell>
        <mxCell id="G42axheilwnnns442K1A-34" style="rounded=0;orthogonalLoop=1;jettySize=auto;html=1;exitX=1;exitY=0.5;exitDx=0;exitDy=0;entryX=0;entryY=0.5;entryDx=0;entryDy=0;shape=link;strokeColor=#333333;" parent="1" source="G42axheilwnnns442K1A-31" target="G42axheilwnnns442K1A-36" edge="1">
          <mxGeometry relative="1" as="geometry">
            <mxPoint x="1208" y="789" as="targetPoint" />
          </mxGeometry>
        </mxCell>
        <mxCell id="G42axheilwnnns442K1A-31" value="具有名字" style="shape=rhombus;double=1;perimeter=rhombusPerimeter;whiteSpace=wrap;html=1;align=center;strokeColor=#d79b00;strokeWidth=2;verticalAlign=middle;fontFamily=Helvetica;fontSize=13;fontColor=#333333;fontStyle=1;fillColor=#ffe6cc;" parent="1" vertex="1">
          <mxGeometry x="1056" y="741" width="120" height="96" as="geometry" />
        </mxCell>
        <mxCell id="Pq-Qp5VGkldlwj48xMcH-29" style="edgeStyle=orthogonalEdgeStyle;rounded=0;orthogonalLoop=1;jettySize=auto;html=1;exitX=0.5;exitY=1;exitDx=0;exitDy=0;entryX=0.5;entryY=0;entryDx=0;entryDy=0;endArrow=none;endFill=0;strokeColor=#333333;" parent="1" source="G42axheilwnnns442K1A-36" target="Pq-Qp5VGkldlwj48xMcH-28" edge="1">
          <mxGeometry relative="1" as="geometry" />
        </mxCell>
        <mxCell id="ck9IUKkeBXYCFq2-rSwv-34" style="rounded=0;orthogonalLoop=1;jettySize=auto;html=1;exitX=1;exitY=1;exitDx=0;exitDy=0;entryX=0;entryY=0;entryDx=0;entryDy=0;endArrow=none;endFill=0;strokeColor=#333333;" edge="1" parent="1" source="G42axheilwnnns442K1A-36" target="ck9IUKkeBXYCFq2-rSwv-32">
          <mxGeometry relative="1" as="geometry" />
        </mxCell>
        <mxCell id="ck9IUKkeBXYCFq2-rSwv-35" style="rounded=0;orthogonalLoop=1;jettySize=auto;html=1;exitX=1;exitY=0.5;exitDx=0;exitDy=0;entryX=0;entryY=0.5;entryDx=0;entryDy=0;endArrow=none;endFill=0;strokeColor=#333333;" edge="1" parent="1" source="G42axheilwnnns442K1A-36" target="ck9IUKkeBXYCFq2-rSwv-33">
          <mxGeometry relative="1" as="geometry" />
        </mxCell>
        <mxCell id="G42axheilwnnns442K1A-36" value="原料名字" style="shape=ext;margin=3;double=1;whiteSpace=wrap;html=1;align=center;rounded=0;strokeColor=#d6b656;strokeWidth=2;verticalAlign=middle;fontFamily=Helvetica;fontSize=14;fontColor=#333333;fontStyle=1;fillColor=#fff2cc;" parent="1" vertex="1">
          <mxGeometry x="1239" y="752.5" width="157" height="73" as="geometry" />
        </mxCell>
        <mxCell id="G42axheilwnnns442K1A-40" value="&lt;font style=&quot;color: rgb(51, 51, 51);&quot;&gt;1&lt;/font&gt;" style="text;html=1;align=center;verticalAlign=middle;resizable=0;points=[];autosize=1;strokeColor=none;fillColor=none;" parent="1" vertex="1">
          <mxGeometry x="1013.5" y="786" width="25" height="26" as="geometry" />
        </mxCell>
        <mxCell id="G42axheilwnnns442K1A-41" value="&lt;font style=&quot;color: rgb(51, 51, 51);&quot;&gt;N&lt;/font&gt;" style="text;html=1;align=center;verticalAlign=middle;resizable=0;points=[];autosize=1;strokeColor=none;fillColor=none;" parent="1" vertex="1">
          <mxGeometry x="1180.5" y="789" width="27" height="26" as="geometry" />
        </mxCell>
        <mxCell id="G42axheilwnnns442K1A-48" style="edgeStyle=orthogonalEdgeStyle;rounded=0;orthogonalLoop=1;jettySize=auto;html=1;exitX=0.5;exitY=1;exitDx=0;exitDy=0;" parent="1" edge="1">
          <mxGeometry relative="1" as="geometry">
            <mxPoint x="1524" y="459" as="sourcePoint" />
            <mxPoint x="1524" y="459" as="targetPoint" />
          </mxGeometry>
        </mxCell>
        <mxCell id="Pq-Qp5VGkldlwj48xMcH-2" style="rounded=0;orthogonalLoop=1;jettySize=auto;html=1;exitX=0.5;exitY=0;exitDx=0;exitDy=0;entryX=0.5;entryY=1;entryDx=0;entryDy=0;endArrow=none;endFill=0;strokeColor=#333333;" parent="1" source="Pq-Qp5VGkldlwj48xMcH-1" target="4LYANcPHWq9vuV5rM0Qy-72" edge="1">
          <mxGeometry relative="1" as="geometry" />
        </mxCell>
        <mxCell id="Pq-Qp5VGkldlwj48xMcH-1" value="单位" style="ellipse;whiteSpace=wrap;html=1;fillColor=#ffe6cc;strokeColor=#d79b00;fontColor=#333333;" parent="1" vertex="1">
          <mxGeometry x="570" y="825.5" width="80" height="40" as="geometry" />
        </mxCell>
        <mxCell id="Pq-Qp5VGkldlwj48xMcH-5" value="类型" style="ellipse;whiteSpace=wrap;html=1;fillColor=#e1d5e7;strokeColor=#9673a6;fontColor=#333333;" parent="1" vertex="1">
          <mxGeometry x="369" y="251" width="100" height="40" as="geometry" />
        </mxCell>
        <mxCell id="ck9IUKkeBXYCFq2-rSwv-39" style="rounded=0;orthogonalLoop=1;jettySize=auto;html=1;exitX=1;exitY=0.25;exitDx=0;exitDy=0;entryX=0;entryY=0.5;entryDx=0;entryDy=0;endArrow=none;endFill=0;strokeColor=#333333;" edge="1" parent="1" source="Pq-Qp5VGkldlwj48xMcH-7" target="ck9IUKkeBXYCFq2-rSwv-38">
          <mxGeometry relative="1" as="geometry" />
        </mxCell>
        <mxCell id="Pq-Qp5VGkldlwj48xMcH-7" value="&lt;font style=&quot;color: rgb(51, 51, 51);&quot;&gt;用户偏好&lt;/font&gt;" style="whiteSpace=wrap;html=1;align=center;strokeColor=#9673A6;verticalAlign=middle;fontFamily=Helvetica;fontSize=12;fontColor=default;fillColor=#E1D5E7;" parent="1" vertex="1">
          <mxGeometry x="288" y="332" width="125" height="48" as="geometry" />
        </mxCell>
        <mxCell id="Pq-Qp5VGkldlwj48xMcH-8" value="标签类型" style="ellipse;whiteSpace=wrap;html=1;fillColor=#f8cecc;strokeColor=#b85450;fontColor=#333333;" parent="1" vertex="1">
          <mxGeometry x="1667" y="374" width="70" height="40" as="geometry" />
        </mxCell>
        <mxCell id="Pq-Qp5VGkldlwj48xMcH-10" value="有偏好" style="shape=rhombus;perimeter=rhombusPerimeter;whiteSpace=wrap;html=1;align=center;strokeColor=#d79b00;strokeWidth=2;verticalAlign=middle;fontFamily=Helvetica;fontSize=13;fontColor=#333333;fontStyle=1;fillColor=#ffe6cc;" parent="1" vertex="1">
          <mxGeometry x="290.5" y="444" width="120" height="60" as="geometry" />
        </mxCell>
        <mxCell id="Pq-Qp5VGkldlwj48xMcH-20" style="rounded=0;orthogonalLoop=1;jettySize=auto;html=1;exitX=0.5;exitY=0;exitDx=0;exitDy=0;entryX=0.5;entryY=1;entryDx=0;entryDy=0;endArrow=none;endFill=0;strokeColor=#333333;" parent="1" source="Pq-Qp5VGkldlwj48xMcH-12" target="Pq-Qp5VGkldlwj48xMcH-19" edge="1">
          <mxGeometry relative="1" as="geometry" />
        </mxCell>
        <mxCell id="Pq-Qp5VGkldlwj48xMcH-12" value="有过敏原" style="shape=rhombus;perimeter=rhombusPerimeter;whiteSpace=wrap;html=1;align=center;strokeColor=#d79b00;strokeWidth=2;verticalAlign=middle;fontFamily=Helvetica;fontSize=13;fontColor=#333333;fontStyle=1;fillColor=#ffe6cc;" parent="1" vertex="1">
          <mxGeometry x="157" y="447" width="120" height="60" as="geometry" />
        </mxCell>
        <mxCell id="ck9IUKkeBXYCFq2-rSwv-37" style="rounded=0;orthogonalLoop=1;jettySize=auto;html=1;exitX=0.5;exitY=0;exitDx=0;exitDy=0;entryX=0.5;entryY=1;entryDx=0;entryDy=0;endArrow=none;endFill=0;strokeColor=#333333;" edge="1" parent="1" source="Pq-Qp5VGkldlwj48xMcH-19" target="ck9IUKkeBXYCFq2-rSwv-36">
          <mxGeometry relative="1" as="geometry" />
        </mxCell>
        <mxCell id="Pq-Qp5VGkldlwj48xMcH-19" value="&lt;font style=&quot;color: rgb(51, 51, 51);&quot;&gt;用户过敏原&lt;/font&gt;" style="whiteSpace=wrap;html=1;align=center;strokeColor=#9673A6;verticalAlign=middle;fontFamily=Helvetica;fontSize=12;fontColor=default;fillColor=#E1D5E7;" parent="1" vertex="1">
          <mxGeometry x="97" y="332" width="125" height="48" as="geometry" />
        </mxCell>
        <mxCell id="Pq-Qp5VGkldlwj48xMcH-23" style="rounded=0;orthogonalLoop=1;jettySize=auto;html=1;exitX=1;exitY=0.5;exitDx=0;exitDy=0;entryX=0;entryY=0.5;entryDx=0;entryDy=0;strokeColor=#333333;endArrow=none;endFill=0;" parent="1" source="Pq-Qp5VGkldlwj48xMcH-21" target="Pq-Qp5VGkldlwj48xMcH-19" edge="1">
          <mxGeometry relative="1" as="geometry" />
        </mxCell>
        <mxCell id="Pq-Qp5VGkldlwj48xMcH-21" value="&lt;u&gt;过敏原ID&lt;/u&gt;" style="ellipse;whiteSpace=wrap;html=1;fillColor=#e1d5e7;strokeColor=#9673a6;fontColor=#333333;" parent="1" vertex="1">
          <mxGeometry x="-43" y="377" width="100" height="40" as="geometry" />
        </mxCell>
        <mxCell id="Pq-Qp5VGkldlwj48xMcH-24" style="rounded=0;orthogonalLoop=1;jettySize=auto;html=1;exitX=1;exitY=1;exitDx=0;exitDy=0;entryX=0.25;entryY=0;entryDx=0;entryDy=0;endArrow=none;endFill=0;strokeColor=#333333;" parent="1" source="Pq-Qp5VGkldlwj48xMcH-22" target="Pq-Qp5VGkldlwj48xMcH-19" edge="1">
          <mxGeometry relative="1" as="geometry" />
        </mxCell>
        <mxCell id="Pq-Qp5VGkldlwj48xMcH-22" value="类型" style="ellipse;whiteSpace=wrap;html=1;fillColor=#e1d5e7;strokeColor=#9673a6;fontColor=#333333;" parent="1" vertex="1">
          <mxGeometry x="-25" y="279" width="100" height="40" as="geometry" />
        </mxCell>
        <mxCell id="Pq-Qp5VGkldlwj48xMcH-25" value="&lt;font style=&quot;color: rgb(51, 51, 51);&quot;&gt;M&lt;/font&gt;" style="text;html=1;align=center;verticalAlign=middle;resizable=0;points=[];autosize=1;strokeColor=none;fillColor=none;" parent="1" vertex="1">
          <mxGeometry x="236" y="532" width="28" height="26" as="geometry" />
        </mxCell>
        <mxCell id="Pq-Qp5VGkldlwj48xMcH-26" value="&lt;font style=&quot;color: rgb(51, 51, 51);&quot;&gt;N&lt;/font&gt;" style="text;html=1;align=center;verticalAlign=middle;resizable=0;points=[];autosize=1;strokeColor=none;fillColor=none;" parent="1" vertex="1">
          <mxGeometry x="190" y="398" width="27" height="26" as="geometry" />
        </mxCell>
        <mxCell id="Pq-Qp5VGkldlwj48xMcH-28" value="名字" style="ellipse;whiteSpace=wrap;html=1;fillColor=#fff2cc;strokeColor=#d6b656;fontColor=#333333;" parent="1" vertex="1">
          <mxGeometry x="1277.5" y="847" width="80" height="40" as="geometry" />
        </mxCell>
        <mxCell id="Pq-Qp5VGkldlwj48xMcH-30" value="标签" style="whiteSpace=wrap;html=1;align=center;rounded=0;strokeColor=#b85450;strokeWidth=2;verticalAlign=middle;fontFamily=Helvetica;fontSize=14;fontColor=#333333;fontStyle=1;fillColor=#f8cecc;" parent="1" vertex="1">
          <mxGeometry x="1494" y="380" width="106" height="52" as="geometry" />
        </mxCell>
        <mxCell id="Pq-Qp5VGkldlwj48xMcH-34" value="拥有标签" style="shape=rhombus;perimeter=rhombusPerimeter;whiteSpace=wrap;html=1;align=center;strokeColor=#d79b00;strokeWidth=2;verticalAlign=middle;fontFamily=Helvetica;fontSize=13;fontColor=#333333;fontStyle=1;fillColor=#ffe6cc;" parent="1" vertex="1">
          <mxGeometry x="1205" y="374" width="120" height="60" as="geometry" />
        </mxCell>
        <mxCell id="ck9IUKkeBXYCFq2-rSwv-3" style="rounded=0;orthogonalLoop=1;jettySize=auto;html=1;exitX=1;exitY=0.5;exitDx=0;exitDy=0;entryX=0;entryY=0.25;entryDx=0;entryDy=0;endArrow=none;endFill=0;strokeColor=#333333;" edge="1" parent="1" source="ck9IUKkeBXYCFq2-rSwv-1" target="4LYANcPHWq9vuV5rM0Qy-14">
          <mxGeometry relative="1" as="geometry" />
        </mxCell>
        <mxCell id="ck9IUKkeBXYCFq2-rSwv-1" value="&lt;b&gt;收藏&lt;/b&gt;" style="rhombus;whiteSpace=wrap;html=1;fillColor=#ffe6cc;strokeColor=#d79b00;fontStyle=1;fontSize=13;strokeWidth=2;fontColor=#333333;" vertex="1" parent="1">
          <mxGeometry x="604" y="221" width="100" height="80" as="geometry" />
        </mxCell>
        <mxCell id="ck9IUKkeBXYCFq2-rSwv-12" style="rounded=0;orthogonalLoop=1;jettySize=auto;html=1;exitX=0.167;exitY=0.968;exitDx=0;exitDy=0;entryX=0.5;entryY=0;entryDx=0;entryDy=0;endArrow=none;endFill=0;strokeColor=#333333;exitPerimeter=0;" edge="1" parent="1" source="ck9IUKkeBXYCFq2-rSwv-29" target="ck9IUKkeBXYCFq2-rSwv-11">
          <mxGeometry relative="1" as="geometry">
            <mxPoint x="355.2499999999998" y="1092.9999999999998" as="sourcePoint" />
          </mxGeometry>
        </mxCell>
        <mxCell id="ck9IUKkeBXYCFq2-rSwv-17" style="rounded=0;orthogonalLoop=1;jettySize=auto;html=1;exitX=0.197;exitY=0.981;exitDx=0;exitDy=0;entryX=0.5;entryY=0;entryDx=0;entryDy=0;strokeColor=#333333;endArrow=none;endFill=0;exitPerimeter=0;" edge="1" parent="1" source="ck9IUKkeBXYCFq2-rSwv-29" target="ck9IUKkeBXYCFq2-rSwv-13">
          <mxGeometry relative="1" as="geometry">
            <mxPoint x="372.9169999999999" y="1093.512" as="sourcePoint" />
          </mxGeometry>
        </mxCell>
        <mxCell id="ck9IUKkeBXYCFq2-rSwv-19" style="rounded=0;orthogonalLoop=1;jettySize=auto;html=1;exitX=0.425;exitY=0.962;exitDx=0;exitDy=0;entryX=0.5;entryY=0;entryDx=0;entryDy=0;endArrow=none;endFill=0;strokeColor=#333333;exitPerimeter=0;" edge="1" parent="1" source="ck9IUKkeBXYCFq2-rSwv-29" target="ck9IUKkeBXYCFq2-rSwv-15">
          <mxGeometry relative="1" as="geometry">
            <mxPoint x="392.9999999999998" y="1092.9999999999998" as="sourcePoint" />
          </mxGeometry>
        </mxCell>
        <mxCell id="ck9IUKkeBXYCFq2-rSwv-20" style="rounded=0;orthogonalLoop=1;jettySize=auto;html=1;exitX=0.623;exitY=1.024;exitDx=0;exitDy=0;entryX=0;entryY=0;entryDx=0;entryDy=0;endArrow=none;endFill=0;strokeColor=#333333;exitPerimeter=0;" edge="1" parent="1" source="ck9IUKkeBXYCFq2-rSwv-29" target="ck9IUKkeBXYCFq2-rSwv-18">
          <mxGeometry relative="1" as="geometry">
            <mxPoint x="417.3109999999999" y="1089.096" as="sourcePoint" />
          </mxGeometry>
        </mxCell>
        <mxCell id="ck9IUKkeBXYCFq2-rSwv-26" style="rounded=0;orthogonalLoop=1;jettySize=auto;html=1;exitX=1;exitY=0.75;exitDx=0;exitDy=0;entryX=0;entryY=0.5;entryDx=0;entryDy=0;endArrow=none;endFill=0;strokeColor=#333333;" edge="1" parent="1" source="ck9IUKkeBXYCFq2-rSwv-29" target="ck9IUKkeBXYCFq2-rSwv-25">
          <mxGeometry relative="1" as="geometry">
            <mxPoint x="468.5" y="1077" as="sourcePoint" />
          </mxGeometry>
        </mxCell>
        <mxCell id="ck9IUKkeBXYCFq2-rSwv-8" style="rounded=0;orthogonalLoop=1;jettySize=auto;html=1;exitX=0.5;exitY=1;exitDx=0;exitDy=0;entryX=0.5;entryY=0;entryDx=0;entryDy=0;strokeColor=#333333;endArrow=none;endFill=0;shape=link;" edge="1" parent="1" source="ck9IUKkeBXYCFq2-rSwv-28" target="ck9IUKkeBXYCFq2-rSwv-29">
          <mxGeometry relative="1" as="geometry">
            <mxPoint x="393.9999999999998" y="858" as="sourcePoint" />
            <mxPoint x="538.9999999999998" y="977" as="targetPoint" />
          </mxGeometry>
        </mxCell>
        <mxCell id="ck9IUKkeBXYCFq2-rSwv-9" value="&lt;font style=&quot;color: rgb(51, 51, 51);&quot;&gt;1&lt;/font&gt;" style="text;html=1;align=center;verticalAlign=middle;resizable=0;points=[];autosize=1;strokeColor=none;fillColor=none;" vertex="1" parent="1">
          <mxGeometry x="310" y="736" width="25" height="26" as="geometry" />
        </mxCell>
        <mxCell id="ck9IUKkeBXYCFq2-rSwv-10" value="&lt;font style=&quot;color: rgb(51, 51, 51);&quot;&gt;M&lt;/font&gt;" style="text;html=1;align=center;verticalAlign=middle;resizable=0;points=[];autosize=1;strokeColor=none;fillColor=none;" vertex="1" parent="1">
          <mxGeometry x="364" y="960" width="28" height="26" as="geometry" />
        </mxCell>
        <mxCell id="ck9IUKkeBXYCFq2-rSwv-11" value="&lt;span style=&quot;border-bottom: 1px dotted&quot;&gt;&lt;font style=&quot;color: rgb(51, 51, 51);&quot;&gt;省&lt;/font&gt;&lt;/span&gt;" style="ellipse;whiteSpace=wrap;html=1;align=center;strokeColor=#8DB1B1;strokeWidth=1;verticalAlign=middle;fontFamily=Helvetica;fontSize=12;fontColor=default;fillColor=#CBFEFE;" vertex="1" parent="1">
          <mxGeometry x="97" y="1089" width="100" height="40" as="geometry" />
        </mxCell>
        <mxCell id="ck9IUKkeBXYCFq2-rSwv-13" value="&lt;span style=&quot;border-bottom: 1px dotted&quot;&gt;&lt;font style=&quot;color: rgb(51, 51, 51);&quot;&gt;市&lt;/font&gt;&lt;/span&gt;" style="ellipse;whiteSpace=wrap;html=1;align=center;strokeColor=#8DB1B1;strokeWidth=1;verticalAlign=middle;fontFamily=Helvetica;fontSize=12;fontColor=default;fillColor=#CBFEFE;" vertex="1" parent="1">
          <mxGeometry x="130" y="1145" width="100" height="40" as="geometry" />
        </mxCell>
        <mxCell id="ck9IUKkeBXYCFq2-rSwv-15" value="&lt;font color=&quot;#333333&quot;&gt;街区&lt;/font&gt;" style="ellipse;whiteSpace=wrap;html=1;align=center;strokeColor=#8DB1B1;strokeWidth=1;verticalAlign=middle;fontFamily=Helvetica;fontSize=12;fontColor=default;fillColor=#CBFEFE;" vertex="1" parent="1">
          <mxGeometry x="340" y="1185" width="100" height="44" as="geometry" />
        </mxCell>
        <mxCell id="ck9IUKkeBXYCFq2-rSwv-16" value="&lt;font color=&quot;#333333&quot;&gt;楼&lt;/font&gt;" style="ellipse;whiteSpace=wrap;html=1;align=center;strokeColor=#8DB1B1;strokeWidth=1;verticalAlign=middle;fontFamily=Helvetica;fontSize=12;fontColor=default;fillColor=#CBFEFE;dashed=1;" vertex="1" parent="1">
          <mxGeometry x="541.5" y="1123" width="100" height="44" as="geometry" />
        </mxCell>
        <mxCell id="ck9IUKkeBXYCFq2-rSwv-18" value="&lt;font color=&quot;#333333&quot;&gt;号&lt;/font&gt;" style="ellipse;whiteSpace=wrap;html=1;align=center;strokeColor=#8DB1B1;strokeWidth=1;verticalAlign=middle;fontFamily=Helvetica;fontSize=12;fontColor=default;fillColor=#CBFEFE;" vertex="1" parent="1">
          <mxGeometry x="455" y="1164" width="100" height="44" as="geometry" />
        </mxCell>
        <mxCell id="ck9IUKkeBXYCFq2-rSwv-21" style="rounded=0;orthogonalLoop=1;jettySize=auto;html=1;exitX=0;exitY=0;exitDx=0;exitDy=0;entryX=0.75;entryY=1;entryDx=0;entryDy=0;strokeColor=#333333;endArrow=none;endFill=0;" edge="1" parent="1" source="ck9IUKkeBXYCFq2-rSwv-16" target="ck9IUKkeBXYCFq2-rSwv-29">
          <mxGeometry relative="1" as="geometry">
            <mxPoint x="443.8869999999997" y="1093.8319999999999" as="targetPoint" />
          </mxGeometry>
        </mxCell>
        <mxCell id="ck9IUKkeBXYCFq2-rSwv-22" value="&lt;span style=&quot;border-bottom: 1px dotted&quot;&gt;&lt;font style=&quot;color: rgb(51, 51, 51);&quot;&gt;区&lt;/font&gt;&lt;/span&gt;" style="ellipse;whiteSpace=wrap;html=1;align=center;strokeColor=#8DB1B1;strokeWidth=1;verticalAlign=middle;fontFamily=Helvetica;fontSize=12;fontColor=default;fillColor=#CBFEFE;" vertex="1" parent="1">
          <mxGeometry x="222" y="1182" width="100" height="40" as="geometry" />
        </mxCell>
        <mxCell id="ck9IUKkeBXYCFq2-rSwv-23" style="rounded=0;orthogonalLoop=1;jettySize=auto;html=1;exitX=0.5;exitY=0;exitDx=0;exitDy=0;entryX=0.333;entryY=0.962;entryDx=0;entryDy=0;entryPerimeter=0;endArrow=none;endFill=0;strokeColor=#333333;" edge="1" parent="1" source="ck9IUKkeBXYCFq2-rSwv-22" target="ck9IUKkeBXYCFq2-rSwv-29">
          <mxGeometry relative="1" as="geometry">
            <mxPoint x="380.91999999999985" y="1092.6799999999998" as="targetPoint" />
          </mxGeometry>
        </mxCell>
        <mxCell id="ck9IUKkeBXYCFq2-rSwv-25" value="&lt;font color=&quot;#333333&quot;&gt;室&lt;/font&gt;" style="ellipse;whiteSpace=wrap;html=1;align=center;strokeColor=#8DB1B1;strokeWidth=1;verticalAlign=middle;fontFamily=Helvetica;fontSize=12;fontColor=default;fillColor=#CBFEFE;dashed=1;" vertex="1" parent="1">
          <mxGeometry x="574" y="1069" width="100" height="44" as="geometry" />
        </mxCell>
        <mxCell id="ck9IUKkeBXYCFq2-rSwv-28" value="所在" style="shape=rhombus;double=1;perimeter=rhombusPerimeter;whiteSpace=wrap;html=1;align=center;strokeColor=#d79b00;strokeWidth=2;verticalAlign=middle;fontFamily=Helvetica;fontSize=13;fontColor=#333333;fontStyle=1;fillColor=#ffe6cc;" vertex="1" parent="1">
          <mxGeometry x="298.5" y="847" width="125" height="88" as="geometry" />
        </mxCell>
        <mxCell id="ck9IUKkeBXYCFq2-rSwv-29" value="&lt;font style=&quot;color: rgb(51, 51, 51); font-size: 16px;&quot;&gt;&lt;b style=&quot;&quot;&gt;用户地点&lt;/b&gt;&lt;/font&gt;" style="shape=ext;margin=3;double=1;whiteSpace=wrap;html=1;align=center;strokeColor=#8DB1B1;strokeWidth=3;verticalAlign=middle;fontFamily=Helvetica;fontSize=12;fontColor=default;fillColor=#CBFEFE;" vertex="1" parent="1">
          <mxGeometry x="293" y="1016" width="147" height="70" as="geometry" />
        </mxCell>
        <mxCell id="ck9IUKkeBXYCFq2-rSwv-30" value="&lt;font color=&quot;#333333&quot;&gt;可跳过&lt;/font&gt;" style="ellipse;whiteSpace=wrap;html=1;fillColor=light-dark(#d5e8d4, #ffcce6);strokeColor=light-dark(#82b366, #ff3399);fontColor=#333333;" vertex="1" parent="1">
          <mxGeometry x="901" y="-54" width="90" height="36" as="geometry" />
        </mxCell>
        <mxCell id="ck9IUKkeBXYCFq2-rSwv-32" value="&lt;font style=&quot;color: rgb(51, 51, 51);&quot;&gt;语言&lt;/font&gt;" style="ellipse;whiteSpace=wrap;html=1;align=center;fillColor=#fff2cc;strokeColor=#d6b656;" vertex="1" parent="1">
          <mxGeometry x="1402" y="839" width="100" height="40" as="geometry" />
        </mxCell>
        <mxCell id="ck9IUKkeBXYCFq2-rSwv-33" value="&lt;font style=&quot;color: rgb(51, 51, 51);&quot;&gt;地区&lt;/font&gt;" style="ellipse;whiteSpace=wrap;html=1;align=center;fillColor=#fff2cc;strokeColor=#d6b656;" vertex="1" parent="1">
          <mxGeometry x="1431" y="769" width="100" height="40" as="geometry" />
        </mxCell>
        <mxCell id="ck9IUKkeBXYCFq2-rSwv-36" value="过敏程度" style="ellipse;whiteSpace=wrap;html=1;fillColor=#e1d5e7;strokeColor=#9673a6;fontColor=#333333;" vertex="1" parent="1">
          <mxGeometry x="110" y="251" width="100" height="40" as="geometry" />
        </mxCell>
        <mxCell id="ck9IUKkeBXYCFq2-rSwv-38" value="偏好程度" style="ellipse;whiteSpace=wrap;html=1;fillColor=#e1d5e7;strokeColor=#9673a6;fontColor=#333333;" vertex="1" parent="1">
          <mxGeometry x="436.5" y="306" width="100" height="40" as="geometry" />
        </mxCell>
      </root>
    </mxGraphModel>
  </diagram>
</mxfile>
